<svg width="334" height="79" viewBox="0 0 334 79" fill="none" xmlns="http://www.w3.org/2000/svg">
<path d="M134.571 40.6452C134.571 42.7901 134.035 44.7919 132.962 46.6508C131.89 48.4382 130.46 49.9039 128.673 51.0478C126.885 52.1202 124.883 52.6564 122.667 52.6564H110.012C109.655 52.6564 109.297 52.7994 108.94 53.0854C108.654 53.2999 108.511 53.5859 108.511 53.9434V58.4476C108.511 58.805 108.654 59.1268 108.94 59.4128C109.297 59.6987 109.655 59.8417 110.012 59.8417H122.667C124.025 59.8417 125.169 60.3065 126.099 61.2359C127.1 62.1653 127.6 63.345 127.6 64.7749V67.5632C127.6 68.9217 127.1 70.1013 126.099 71.1023C125.169 72.0317 124.025 72.4964 122.667 72.4964H107.76C104.471 72.4964 101.647 71.3525 99.2881 69.0647C96.9287 66.7053 95.749 63.8455 95.749 60.4852V28.9557C95.749 26.7393 96.2852 24.7374 97.3577 22.9501C98.5016 21.1627 99.9673 19.7328 101.755 18.6603C103.542 17.5164 105.544 16.9444 107.76 16.9444H122.667C124.883 16.9444 126.885 17.5164 128.673 18.6603C130.46 19.7328 131.89 21.1627 132.962 22.9501C134.035 24.7374 134.571 26.7393 134.571 28.9557V40.6452ZM121.916 38.5003V31.2078C121.916 30.7788 121.738 30.4213 121.38 30.1354C121.094 29.8494 120.772 29.7064 120.415 29.7064H110.012C109.655 29.7064 109.297 29.8494 108.94 30.1354C108.654 30.4213 108.511 30.7788 108.511 31.2078V38.5003C108.511 38.7863 108.654 39.0723 108.94 39.3583C109.297 39.6443 109.655 39.7872 110.012 39.7872H120.415C120.772 39.7872 121.094 39.6443 121.38 39.3583C121.738 39.0723 121.916 38.7863 121.916 38.5003Z" fill="#2563EB"/>
<path d="M190.698 60.4852C190.698 63.8455 189.518 66.7053 187.159 69.0647C184.871 71.3525 182.083 72.4964 178.794 72.4964H163.887C160.598 72.4964 157.774 71.3525 155.415 69.0647C153.055 66.7053 151.876 63.8455 151.876 60.4852V28.9557C151.876 26.7393 152.412 24.7374 153.484 22.9501C154.628 21.0912 156.094 19.6255 157.881 18.5531C159.669 17.4807 161.671 16.9444 163.887 16.9444H178.794C181.01 16.9444 183.012 17.4807 184.799 18.5531C186.587 19.6255 188.017 21.0912 189.089 22.9501C190.162 24.7374 190.698 26.7393 190.698 28.9557V60.4852ZM178.043 58.4476V31.2078C178.043 30.7788 177.864 30.4213 177.507 30.1354C177.221 29.8494 176.899 29.7064 176.542 29.7064H166.139C165.782 29.7064 165.424 29.8494 165.067 30.1354C164.781 30.4213 164.638 30.7788 164.638 31.2078V58.4476C164.638 58.805 164.781 59.1268 165.067 59.4128C165.424 59.6987 165.782 59.8417 166.139 59.8417H176.542C176.899 59.8417 177.221 59.6987 177.507 59.4128C177.864 59.1268 178.043 58.805 178.043 58.4476Z" fill="#2563EB"/>
<path d="M239.854 67.5632C239.854 68.9217 239.389 70.1013 238.46 71.1023C237.53 72.0317 236.386 72.4964 235.028 72.4964H220.014C216.725 72.4964 213.901 71.3525 211.542 69.0647C209.254 66.7053 208.11 63.8455 208.11 60.4852V4.93319C208.11 3.50328 208.574 2.32361 209.504 1.39416C210.433 0.464721 211.577 0 212.936 0H215.939C217.297 0 218.441 0.464721 219.37 1.39416C220.371 2.32361 220.872 3.50328 220.872 4.93319V15.6575C220.872 16.5155 221.336 16.9444 222.266 16.9444H235.028C236.386 16.9444 237.53 17.4449 238.46 18.4458C239.389 19.3753 239.854 20.555 239.854 21.9849V24.8804C239.854 26.0959 239.389 27.2398 238.46 28.3122C237.387 29.2417 236.243 29.7064 235.028 29.7064H222.266C221.336 29.7064 220.872 30.2068 220.872 31.2078V58.4476C220.872 59.377 221.336 59.8417 222.266 59.8417H235.028C236.386 59.8417 237.53 60.3065 238.46 61.2359C239.389 62.1653 239.854 63.345 239.854 64.7749V67.5632Z" fill="#2563EB"/>
<path d="M38 20.4963L6 43.4963L38 66.4963" stroke="#2563EB" stroke-width="12" stroke-linecap="round" stroke-linejoin="round"/>
<path d="M273 72.4963L273 14.4963" stroke="#2563EB" stroke-width="12" stroke-linecap="round"/>
<path d="M296 66.4963L328 43.4963L296 20.4963" stroke="#2563EB" stroke-width="12" stroke-linecap="round" stroke-linejoin="round"/>
<path d="M60 14.4963V72.4963" stroke="#2563EB" stroke-width="12" stroke-linecap="round"/>
</svg>
