<svg width="260" height="66" viewBox="0 0 260 66" fill="none" xmlns="http://www.w3.org/2000/svg">
<path d="M104.805 34.7604C104.805 36.5947 104.269 38.3067 103.197 39.8965C102.125 41.425 100.696 42.6785 98.909 43.6568C97.1225 44.574 95.1215 45.0325 92.9061 45.0325H80.257C79.8997 45.0325 79.5424 45.1548 79.1851 45.3994C78.8992 45.5828 78.7563 45.8274 78.7563 46.1331V49.9852C78.7563 50.2909 78.8992 50.5661 79.1851 50.8106C79.5424 51.0552 79.8997 51.1775 80.257 51.1775H92.9061C94.2639 51.1775 95.4073 51.575 96.3364 52.3698C97.3368 53.1647 97.8371 54.1736 97.8371 55.3965V57.7811C97.8371 58.9428 97.3368 59.9517 96.3364 60.8077C95.4073 61.6026 94.2639 62 92.9061 62H78.0059C74.7186 62 71.8958 61.0217 69.5375 59.0651C67.1792 57.0473 66 54.6016 66 51.7278V24.7633C66 22.8679 66.536 21.1558 67.6079 19.6272C68.7514 18.0986 70.2164 16.8757 72.003 15.9586C73.7895 14.9803 75.7905 14.4911 78.0059 14.4911H92.9061C95.1215 14.4911 97.1225 14.9803 98.909 15.9586C100.696 16.8757 102.125 18.0986 103.197 19.6272C104.269 21.1558 104.805 22.8679 104.805 24.7633V34.7604ZM92.1557 32.926V26.6893C92.1557 26.3225 91.9771 26.0168 91.6197 25.7722C91.3339 25.5276 91.0123 25.4053 90.655 25.4053H80.257C79.8997 25.4053 79.5424 25.5276 79.1851 25.7722C78.8992 26.0168 78.7563 26.3225 78.7563 26.6893V32.926C78.7563 33.1706 78.8992 33.4152 79.1851 33.6598C79.5424 33.9043 79.8997 34.0266 80.257 34.0266H90.655C91.0123 34.0266 91.3339 33.9043 91.6197 33.6598C91.9771 33.4152 92.1557 33.1706 92.1557 32.926Z" fill="#FF7878"/>
<path d="M151.736 51.7278C151.736 54.6016 150.557 57.0473 148.198 59.0651C145.911 61.0217 143.124 62 139.837 62H124.937C121.649 62 118.827 61.0217 116.468 59.0651C114.11 57.0473 112.931 54.6016 112.931 51.7278V24.7633C112.931 22.8679 113.467 21.1558 114.539 19.6272C115.682 18.0375 117.147 16.784 118.934 15.8669C120.72 14.9497 122.721 14.4911 124.937 14.4911H139.837C142.052 14.4911 144.053 14.9497 145.84 15.8669C147.627 16.784 149.056 18.0375 150.128 19.6272C151.2 21.1558 151.736 22.8679 151.736 24.7633V51.7278ZM139.087 49.9852V26.6893C139.087 26.3225 138.908 26.0168 138.551 25.7722C138.265 25.5276 137.943 25.4053 137.586 25.4053H127.188C126.831 25.4053 126.473 25.5276 126.116 25.7722C125.83 26.0168 125.687 26.3225 125.687 26.6893V49.9852C125.687 50.2909 125.83 50.5661 126.116 50.8106C126.473 51.0552 126.831 51.1775 127.188 51.1775H137.586C137.943 51.1775 138.265 51.0552 138.551 50.8106C138.908 50.5661 139.087 50.2909 139.087 49.9852Z" fill="#FF7878"/>
<path d="M195.014 57.7811C195.014 58.9428 194.549 59.9517 193.62 60.8077C192.691 61.6026 191.548 62 190.19 62H175.183C171.895 62 169.073 61.0217 166.714 59.0651C164.427 57.0473 163.284 54.6016 163.284 51.7278V4.21893C163.284 2.99606 163.749 1.98718 164.678 1.19231C165.607 0.397436 166.75 0 168.108 0H171.109C172.467 0 173.611 0.397436 174.54 1.19231C175.54 1.98718 176.04 2.99606 176.04 4.21893V13.3905C176.04 14.1243 176.505 14.4911 177.434 14.4911H190.19C191.548 14.4911 192.691 14.9191 193.62 15.7752C194.549 16.57 195.014 17.5789 195.014 18.8018V21.2781C195.014 22.3176 194.549 23.2959 193.62 24.213C192.548 25.0079 191.405 25.4053 190.19 25.4053H177.434C176.505 25.4053 176.04 25.8333 176.04 26.6893V49.9852C176.04 50.7801 176.505 51.1775 177.434 51.1775H190.19C191.548 51.1775 192.691 51.575 193.62 52.3698C194.549 53.1647 195.014 54.1736 195.014 55.3965V57.7811Z" fill="#FF7878"/>
<path d="M20 17L6 36.5L20 56" stroke="#FF7878" stroke-width="12" stroke-linecap="round" stroke-linejoin="round"/>
<path d="M222 60L222 12" stroke="#FF7878" stroke-width="12" stroke-linecap="round"/>
<path d="M240 56L254 36.5L240 17" stroke="#FF7878" stroke-width="12" stroke-linecap="round" stroke-linejoin="round"/>
<path d="M38 12V60" stroke="#FF7878" stroke-width="12" stroke-linecap="round"/>
</svg>
