<svg width="508" height="66" viewBox="0 0 508 66" fill="none" xmlns="http://www.w3.org/2000/svg">
<path d="M103.805 34.7604C103.805 36.5947 103.269 38.3067 102.197 39.8965C101.125 41.425 99.6956 42.6785 97.909 43.6568C96.1225 44.574 94.1215 45.0325 91.9061 45.0325H79.257C78.8997 45.0325 78.5424 45.1548 78.1851 45.3994C77.8992 45.5828 77.7563 45.8274 77.7563 46.1331V49.9852C77.7563 50.2909 77.8992 50.5661 78.1851 50.8106C78.5424 51.0552 78.8997 51.1775 79.257 51.1775H91.9061C93.2639 51.1775 94.4073 51.575 95.3364 52.3698C96.3368 53.1647 96.8371 54.1736 96.8371 55.3965V57.7811C96.8371 58.9428 96.3368 59.9517 95.3364 60.8077C94.4073 61.6026 93.2639 62 91.9061 62H77.0059C73.7186 62 70.8958 61.0217 68.5375 59.0651C66.1792 57.0473 65 54.6016 65 51.7278V24.7633C65 22.8679 65.536 21.1558 66.6079 19.6272C67.7514 18.0986 69.2164 16.8757 71.003 15.9586C72.7895 14.9803 74.7905 14.4911 77.0059 14.4911H91.9061C94.1215 14.4911 96.1225 14.9803 97.909 15.9586C99.6956 16.8757 101.125 18.0986 102.197 19.6272C103.269 21.1558 103.805 22.8679 103.805 24.7633V34.7604ZM91.1557 32.926V26.6893C91.1557 26.3225 90.9771 26.0168 90.6197 25.7722C90.3339 25.5276 90.0123 25.4053 89.655 25.4053H79.257C78.8997 25.4053 78.5424 25.5276 78.1851 25.7722C77.8992 26.0168 77.7563 26.3225 77.7563 26.6893V32.926C77.7563 33.1706 77.8992 33.4152 78.1851 33.6598C78.5424 33.9043 78.8997 34.0266 79.257 34.0266H89.655C90.0123 34.0266 90.3339 33.9043 90.6197 33.6598C90.9771 33.4152 91.1557 33.1706 91.1557 32.926Z" fill="#FF7878"/>
<path d="M148.115 57.7811C148.115 58.9428 147.651 59.9517 146.722 60.8077C145.793 61.6026 144.649 62 143.291 62H140.29C138.932 62 137.789 61.6026 136.86 60.8077C135.931 59.9517 135.466 58.9428 135.466 57.7811V26.6893C135.466 26.3225 135.287 26.0168 134.93 25.7722C134.644 25.5276 134.323 25.4053 133.965 25.4053H123.567C123.21 25.4053 122.853 25.5276 122.495 25.7722C122.21 26.0168 122.067 26.3225 122.067 26.6893V57.7811C122.067 58.9428 121.602 59.9517 120.673 60.8077C119.744 61.6026 118.601 62 117.243 62H114.241C112.883 62 111.704 61.6026 110.704 60.8077C109.775 59.9517 109.31 58.9428 109.31 57.7811V24.7633C109.31 22.8679 109.846 21.1558 110.918 19.6272C112.062 18.0375 113.527 16.784 115.313 15.8669C117.1 14.9497 119.101 14.4911 121.316 14.4911H136.216C138.432 14.4911 140.433 14.9497 142.219 15.8669C144.006 16.784 145.435 18.0375 146.507 19.6272C147.579 21.1558 148.115 22.8679 148.115 24.7633V57.7811Z" fill="#FF7878"/>
<path d="M192.425 51.7278C192.425 54.6016 191.246 57.0473 188.888 59.0651C186.601 61.0217 183.814 62 180.527 62H165.627C162.339 62 159.516 61.0217 157.158 59.0651C154.8 57.0473 153.621 54.6016 153.621 51.7278V24.7633C153.621 22.8679 154.157 21.1558 155.229 19.6272C156.372 18.0375 157.837 16.784 159.624 15.8669C161.41 14.9497 163.411 14.4911 165.627 14.4911H178.276C179.276 14.4911 179.776 14.1243 179.776 13.3905V4.21893C179.776 2.99606 180.241 1.98718 181.17 1.19231C182.099 0.397436 183.242 0 184.6 0H187.602C188.959 0 190.103 0.397436 191.032 1.19231C191.961 1.98718 192.425 2.99606 192.425 4.21893V51.7278ZM179.776 49.9852V26.6893C179.776 25.8333 179.276 25.4053 178.276 25.4053H167.878C167.52 25.4053 167.163 25.5276 166.806 25.7722C166.52 26.0168 166.377 26.3225 166.377 26.6893V49.9852C166.377 50.2909 166.52 50.5661 166.806 50.8106C167.163 51.0552 167.52 51.1775 167.878 51.1775H178.276C179.276 51.1775 179.776 50.7801 179.776 49.9852Z" fill="#FF7878"/>
<path d="M243.736 51.7278C243.736 54.6016 242.557 57.0473 240.198 59.0651C237.911 61.0217 235.124 62 231.837 62H216.937C213.649 62 210.827 61.0217 208.468 59.0651C206.11 57.0473 204.931 54.6016 204.931 51.7278V24.7633C204.931 22.8679 205.467 21.1558 206.539 19.6272C207.682 18.0375 209.147 16.784 210.934 15.8669C212.72 14.9497 214.721 14.4911 216.937 14.4911H231.837C234.052 14.4911 236.053 14.9497 237.84 15.8669C239.627 16.784 241.056 18.0375 242.128 19.6272C243.2 21.1558 243.736 22.8679 243.736 24.7633V51.7278ZM231.087 49.9852V26.6893C231.087 26.3225 230.908 26.0168 230.551 25.7722C230.265 25.5276 229.943 25.4053 229.586 25.4053H219.188C218.831 25.4053 218.473 25.5276 218.116 25.7722C217.83 26.0168 217.687 26.3225 217.687 26.6893V49.9852C217.687 50.2909 217.83 50.5661 218.116 50.8106C218.473 51.0552 218.831 51.1775 219.188 51.1775H229.586C229.943 51.1775 230.265 51.0552 230.551 50.8106C230.908 50.5661 231.087 50.2909 231.087 49.9852Z" fill="#FF7878"/>
<path d="M277.685 21.2781C277.685 22.4398 277.22 23.4181 276.291 24.213C275.362 25.0079 274.183 25.4053 272.754 25.4053H261.498C260.569 25.4053 260.105 25.8333 260.105 26.6893V57.7811C260.105 58.9428 259.604 59.9517 258.604 60.8077C257.675 61.6026 256.532 62 255.174 62H252.172C250.814 62 249.635 61.6026 248.635 60.8077C247.706 59.9517 247.241 58.9428 247.241 57.7811V10.1805C247.241 8.28501 247.777 6.57298 248.849 5.04438C249.993 3.51578 251.458 2.2929 253.244 1.37574C255.031 0.458581 257.032 0 259.247 0H272.754C274.183 0 275.362 0.397436 276.291 1.19231C277.22 1.98718 277.685 2.99606 277.685 4.21893V6.69527C277.685 7.857 277.22 8.86588 276.291 9.72189C275.362 10.5168 274.183 10.9142 272.754 10.9142H261.498C260.569 10.9142 260.105 11.3116 260.105 12.1065V13.3905C260.105 14.1243 260.569 14.4911 261.498 14.4911H272.754C274.183 14.4911 275.362 14.9191 276.291 15.7752C277.22 16.57 277.685 17.5789 277.685 18.8018V21.2781Z" fill="#FF7878"/>
<path d="M321.014 57.7811C321.014 58.9428 320.549 59.9517 319.62 60.8077C318.691 61.6026 317.548 62 316.19 62H301.183C297.895 62 295.073 61.0217 292.714 59.0651C290.427 57.0473 289.284 54.6016 289.284 51.7278V4.21893C289.284 2.99606 289.749 1.98718 290.678 1.19231C291.607 0.397436 292.75 0 294.108 0H297.109C298.467 0 299.611 0.397436 300.54 1.19231C301.54 1.98718 302.04 2.99606 302.04 4.21893V13.3905C302.04 14.1243 302.505 14.4911 303.434 14.4911H316.19C317.548 14.4911 318.691 14.9191 319.62 15.7752C320.549 16.57 321.014 17.5789 321.014 18.8018V21.2781C321.014 22.3176 320.549 23.2959 319.62 24.213C318.548 25.0079 317.405 25.4053 316.19 25.4053H303.434C302.505 25.4053 302.04 25.8333 302.04 26.6893V49.9852C302.04 50.7801 302.505 51.1775 303.434 51.1775H316.19C317.548 51.1775 318.691 51.575 319.62 52.3698C320.549 53.1647 321.014 54.1736 321.014 55.3965V57.7811Z" fill="#FF7878"/>
<path d="M365.278 34.7604C365.278 36.5947 364.742 38.3067 363.67 39.8965C362.598 41.425 361.169 42.6785 359.382 43.6568C357.596 44.574 355.595 45.0325 353.379 45.0325H340.73C340.373 45.0325 340.016 45.1548 339.658 45.3994C339.373 45.5828 339.23 45.8274 339.23 46.1331V49.9852C339.23 50.2909 339.373 50.5661 339.658 50.8106C340.016 51.0552 340.373 51.1775 340.73 51.1775H353.379C354.737 51.1775 355.881 51.575 356.81 52.3698C357.81 53.1647 358.311 54.1736 358.311 55.3965V57.7811C358.311 58.9428 357.81 59.9517 356.81 60.8077C355.881 61.6026 354.737 62 353.379 62H338.479C335.192 62 332.369 61.0217 330.011 59.0651C327.653 57.0473 326.473 54.6016 326.473 51.7278V24.7633C326.473 22.8679 327.009 21.1558 328.081 19.6272C329.225 18.0986 330.69 16.8757 332.476 15.9586C334.263 14.9803 336.264 14.4911 338.479 14.4911H353.379C355.595 14.4911 357.596 14.9803 359.382 15.9586C361.169 16.8757 362.598 18.0986 363.67 19.6272C364.742 21.1558 365.278 22.8679 365.278 24.7633V34.7604ZM352.629 32.926V26.6893C352.629 26.3225 352.45 26.0168 352.093 25.7722C351.807 25.5276 351.486 25.4053 351.128 25.4053H340.73C340.373 25.4053 340.016 25.5276 339.658 25.7722C339.373 26.0168 339.23 26.3225 339.23 26.6893V32.926C339.23 33.1706 339.373 33.4152 339.658 33.6598C340.016 33.9043 340.373 34.0266 340.73 34.0266H351.128C351.486 34.0266 351.807 33.9043 352.093 33.6598C352.45 33.4152 352.629 33.1706 352.629 32.926Z" fill="#FF7878"/>
<path d="M406.265 20.6361L396.618 37.3284C396.118 38.001 396.118 38.7041 396.618 39.4379L406.158 55.9467C407.016 57.3531 406.944 58.6982 405.944 59.9822C405.015 61.3274 403.657 62 401.87 62H398.547C396.546 62 395.081 61.2357 394.152 59.7071L389.436 51.5444C389.364 51.3609 389.15 51.2692 388.793 51.2692C388.507 51.2692 388.292 51.3609 388.149 51.5444L383.54 59.7071C382.611 61.2357 381.11 62 379.038 62H375.715C373.928 62 372.57 61.3274 371.641 59.9822C370.712 58.6982 370.641 57.3531 371.427 55.9467L381.074 39.4379C381.432 38.7041 381.432 37.9704 381.074 37.2367L371.32 20.6361C370.534 19.2298 370.605 17.854 371.534 16.5089C372.535 15.1637 373.928 14.4911 375.715 14.4911H379.038C380.038 14.4911 380.896 14.7357 381.61 15.2249C382.397 15.6529 383.004 16.2032 383.433 16.8757L388.149 25.1302C388.292 25.3136 388.507 25.4053 388.793 25.4053C389.15 25.4053 389.364 25.3136 389.436 25.1302L394.26 16.8757C394.688 16.2032 395.26 15.6529 395.975 15.2249C396.761 14.7357 397.618 14.4911 398.547 14.4911H401.87C403.586 14.4911 404.979 15.1637 406.051 16.5089C406.98 17.854 407.052 19.2298 406.265 20.6361Z" fill="#FF7878"/>
<path d="M444 57.7811C444 58.9428 443.535 59.9517 442.606 60.8077C441.677 61.6026 440.534 62 439.176 62H424.169C420.881 62 418.059 61.0217 415.7 59.0651C413.414 57.0473 412.27 54.6016 412.27 51.7278V4.21893C412.27 2.99606 412.735 1.98718 413.664 1.19231C414.593 0.397436 415.736 0 417.094 0H420.095C421.453 0 422.597 0.397436 423.526 1.19231C424.526 1.98718 425.026 2.99606 425.026 4.21893V13.3905C425.026 14.1243 425.491 14.4911 426.42 14.4911H439.176C440.534 14.4911 441.677 14.9191 442.606 15.7752C443.535 16.57 444 17.5789 444 18.8018V21.2781C444 22.3176 443.535 23.2959 442.606 24.213C441.534 25.0079 440.391 25.4053 439.176 25.4053H426.42C425.491 25.4053 425.026 25.8333 425.026 26.6893V49.9852C425.026 50.7801 425.491 51.1775 426.42 51.1775H439.176C440.534 51.1775 441.677 51.575 442.606 52.3698C443.535 53.1647 444 54.1736 444 55.3965V57.7811Z" fill="#FF7878"/>
<path d="M20 17L6 36.5L20 56" stroke="#FF7878" stroke-width="12" stroke-linecap="round" stroke-linejoin="round"/>
<path d="M470 60L470 12" stroke="#FF7878" stroke-width="12" stroke-linecap="round"/>
<path d="M488 56L502 36.5L488 17" stroke="#FF7878" stroke-width="12" stroke-linecap="round" stroke-linejoin="round"/>
<path d="M38 12V60" stroke="#FF7878" stroke-width="12" stroke-linecap="round"/>
</svg>
