<svg width="653" height="79" viewBox="0 0 653 79" fill="none" xmlns="http://www.w3.org/2000/svg">
<path d="M134.571 41.1486C134.571 43.2935 134.035 45.2953 132.962 47.1542C131.89 48.9416 130.46 50.4073 128.673 51.5512C126.885 52.6236 124.883 53.1599 122.667 53.1599H110.012C109.655 53.1599 109.297 53.3028 108.94 53.5888C108.654 53.8033 108.511 54.0893 108.511 54.4468V58.951C108.511 59.3085 108.654 59.6302 108.94 59.9162C109.297 60.2022 109.655 60.3451 110.012 60.3451H122.667C124.025 60.3451 125.169 60.8099 126.099 61.7393C127.1 62.6688 127.6 63.8484 127.6 65.2783V68.0667C127.6 69.4251 127.1 70.6048 126.099 71.6057C125.169 72.5351 124.025 72.9999 122.667 72.9999H107.76C104.471 72.9999 101.647 71.8559 99.2881 69.5681C96.9287 67.2087 95.749 64.3489 95.749 60.9886V29.4591C95.749 27.2427 96.2852 25.2409 97.3577 23.4535C98.5016 21.6661 99.9673 20.2362 101.755 19.1637C103.542 18.0198 105.544 17.4479 107.76 17.4479H122.667C124.883 17.4479 126.885 18.0198 128.673 19.1637C130.46 20.2362 131.89 21.6661 132.962 23.4535C134.035 25.2409 134.571 27.2427 134.571 29.4591V41.1486ZM121.916 39.0037V31.7112C121.916 31.2822 121.738 30.9248 121.38 30.6388C121.094 30.3528 120.772 30.2098 120.415 30.2098H110.012C109.655 30.2098 109.297 30.3528 108.94 30.6388C108.654 30.9248 108.511 31.2822 108.511 31.7112V39.0037C108.511 39.2897 108.654 39.5757 108.94 39.8617C109.297 40.1477 109.655 40.2907 110.012 40.2907H120.415C120.772 40.2907 121.094 40.1477 121.38 39.8617C121.738 39.5757 121.916 39.2897 121.916 39.0037Z" fill="#2563EB"/>
<path d="M190.698 68.0667C190.698 69.4251 190.233 70.6048 189.304 71.6057C188.374 72.5351 187.23 72.9999 185.872 72.9999H182.869C181.511 72.9999 180.367 72.5351 179.437 71.6057C178.508 70.6048 178.043 69.4251 178.043 68.0667V31.7112C178.043 31.2822 177.864 30.9248 177.507 30.6388C177.221 30.3528 176.899 30.2098 176.542 30.2098H166.139C165.782 30.2098 165.424 30.3528 165.067 30.6388C164.781 30.9248 164.638 31.2822 164.638 31.7112V68.0667C164.638 69.4251 164.173 70.6048 163.244 71.6057C162.314 72.5351 161.17 72.9999 159.812 72.9999H156.809C155.451 72.9999 154.271 72.5351 153.27 71.6057C152.34 70.6048 151.876 69.4251 151.876 68.0667V29.4591C151.876 27.2427 152.412 25.2409 153.484 23.4535C154.628 21.5946 156.094 20.1289 157.881 19.0565C159.669 17.9841 161.671 17.4479 163.887 17.4479H178.794C181.01 17.4479 183.012 17.9841 184.799 19.0565C186.587 20.1289 188.017 21.5946 189.089 23.4535C190.162 25.2409 190.698 27.2427 190.698 29.4591V68.0667Z" fill="#2563EB"/>
<path d="M246.825 60.9886C246.825 64.3489 245.645 67.2087 243.286 69.5681C240.998 71.8559 238.209 72.9999 234.921 72.9999H220.014C216.725 72.9999 213.901 71.8559 211.542 69.5681C209.182 67.2087 208.003 64.3489 208.003 60.9886V29.4591C208.003 27.2427 208.539 25.2409 209.611 23.4535C210.755 21.5946 212.221 20.1289 214.008 19.0565C215.796 17.9841 217.797 17.4479 220.014 17.4479H232.668C233.669 17.4479 234.17 17.0189 234.17 16.1609V5.43661C234.17 4.0067 234.635 2.82702 235.564 1.89758C236.493 0.968139 237.637 0.503418 238.996 0.503418H241.999C243.357 0.503418 244.501 0.968139 245.43 1.89758C246.36 2.82702 246.825 4.0067 246.825 5.43661V60.9886ZM234.17 58.951V31.7112C234.17 30.7103 233.669 30.2098 232.668 30.2098H222.266C221.908 30.2098 221.551 30.3528 221.193 30.6388C220.907 30.9248 220.764 31.2822 220.764 31.7112V58.951C220.764 59.3085 220.907 59.6302 221.193 59.9162C221.551 60.2022 221.908 60.3451 222.266 60.3451H232.668C233.669 60.3451 234.17 59.8804 234.17 58.951Z" fill="#2563EB"/>
<path d="M302.951 60.9886C302.951 64.3489 301.772 67.2087 299.412 69.5681C297.124 71.8559 294.336 72.9999 291.047 72.9999H276.141C272.852 72.9999 270.028 71.8559 267.668 69.5681C265.309 67.2087 264.129 64.3489 264.129 60.9886V29.4591C264.129 27.2427 264.665 25.2409 265.738 23.4535C266.882 21.5946 268.348 20.1289 270.135 19.0565C271.922 17.9841 273.924 17.4479 276.141 17.4479H291.047C293.264 17.4479 295.266 17.9841 297.053 19.0565C298.84 20.1289 300.27 21.5946 301.343 23.4535C302.415 25.2409 302.951 27.2427 302.951 29.4591V60.9886ZM290.297 58.951V31.7112C290.297 31.2822 290.118 30.9248 289.76 30.6388C289.474 30.3528 289.153 30.2098 288.795 30.2098H278.393C278.035 30.2098 277.678 30.3528 277.32 30.6388C277.034 30.9248 276.891 31.2822 276.891 31.7112V58.951C276.891 59.3085 277.034 59.6302 277.32 59.9162C277.678 60.2022 278.035 60.3451 278.393 60.3451H288.795C289.153 60.3451 289.474 60.2022 289.76 59.9162C290.118 59.6302 290.297 59.3085 290.297 58.951Z" fill="#2563EB"/>
<path d="M350.713 25.3839C350.713 26.7423 350.248 27.8862 349.319 28.8156C348.39 29.7451 347.21 30.2098 345.78 30.2098H334.519C333.59 30.2098 333.125 30.7103 333.125 31.7112V68.0667C333.125 69.4251 332.625 70.6048 331.624 71.6057C330.694 72.5351 329.55 72.9999 328.192 72.9999H325.189C323.831 72.9999 322.651 72.5351 321.65 71.6057C320.721 70.6048 320.256 69.4251 320.256 68.0667V12.4074C320.256 10.1911 320.792 8.18919 321.865 6.4018C323.009 4.61441 324.474 3.1845 326.262 2.11207C328.049 1.03964 330.051 0.503418 332.267 0.503418H345.78C347.21 0.503418 348.39 0.968139 349.319 1.89758C350.248 2.82702 350.713 4.0067 350.713 5.43661V8.33218C350.713 9.69059 350.248 10.8703 349.319 11.8712C348.39 12.8006 347.21 13.2654 345.78 13.2654H334.519C333.59 13.2654 333.125 13.7301 333.125 14.6595V16.1609C333.125 17.0189 333.59 17.4479 334.519 17.4479H345.78C347.21 17.4479 348.39 17.9483 349.319 18.9493C350.248 19.8787 350.713 21.0584 350.713 22.4883V25.3839Z" fill="#2563EB"/>
<path d="M399.856 68.0667C399.856 69.4251 399.391 70.6048 398.462 71.6057C397.532 72.5351 396.388 72.9999 395.03 72.9999H380.016C376.727 72.9999 373.903 71.8559 371.543 69.5681C369.256 67.2087 368.112 64.3489 368.112 60.9886V5.43661C368.112 4.0067 368.576 2.82702 369.506 1.89758C370.435 0.968139 371.579 0.503418 372.938 0.503418H375.94C377.299 0.503418 378.443 0.968139 379.372 1.89758C380.373 2.82702 380.874 4.0067 380.874 5.43661V16.1609C380.874 17.0189 381.338 17.4479 382.268 17.4479H395.03C396.388 17.4479 397.532 17.9483 398.462 18.9493C399.391 19.8787 399.856 21.0584 399.856 22.4883V25.3839C399.856 26.5993 399.391 27.7432 398.462 28.8156C397.389 29.7451 396.245 30.2098 395.03 30.2098H382.268C381.338 30.2098 380.874 30.7103 380.874 31.7112V58.951C380.874 59.8804 381.338 60.3451 382.268 60.3451H395.03C396.388 60.3451 397.532 60.8099 398.462 61.7393C399.391 62.6688 399.856 63.8484 399.856 65.2783V68.0667Z" fill="#2563EB"/>
<path d="M455.936 41.1486C455.936 43.2935 455.4 45.2953 454.328 47.1542C453.255 48.9416 451.825 50.4073 450.038 51.5512C448.251 52.6236 446.249 53.1599 444.032 53.1599H431.378C431.02 53.1599 430.663 53.3028 430.305 53.5888C430.019 53.8033 429.876 54.0893 429.876 54.4468V58.951C429.876 59.3085 430.019 59.6302 430.305 59.9162C430.663 60.2022 431.02 60.3451 431.378 60.3451H444.032C445.391 60.3451 446.535 60.8099 447.464 61.7393C448.465 62.6688 448.966 63.8484 448.966 65.2783V68.0667C448.966 69.4251 448.465 70.6048 447.464 71.6057C446.535 72.5351 445.391 72.9999 444.032 72.9999H429.126C425.837 72.9999 423.013 71.8559 420.653 69.5681C418.294 67.2087 417.114 64.3489 417.114 60.9886V29.4591C417.114 27.2427 417.65 25.2409 418.723 23.4535C419.867 21.6661 421.333 20.2362 423.12 19.1637C424.907 18.0198 426.909 17.4479 429.126 17.4479H444.032C446.249 17.4479 448.251 18.0198 450.038 19.1637C451.825 20.2362 453.255 21.6661 454.328 23.4535C455.4 25.2409 455.936 27.2427 455.936 29.4591V41.1486ZM443.282 39.0037V31.7112C443.282 31.2822 443.103 30.9248 442.745 30.6388C442.459 30.3528 442.138 30.2098 441.78 30.2098H431.378C431.02 30.2098 430.663 30.3528 430.305 30.6388C430.019 30.9248 429.876 31.2822 429.876 31.7112V39.0037C429.876 39.2897 430.019 39.5757 430.305 39.8617C430.663 40.1477 431.02 40.2907 431.378 40.2907H441.78C442.138 40.2907 442.459 40.1477 442.745 39.8617C443.103 39.5757 443.282 39.2897 443.282 39.0037Z" fill="#2563EB"/>
<path d="M508.739 24.6332L499.087 44.1514C498.586 44.9379 498.586 45.7601 499.087 46.618L508.631 65.9218C509.489 67.5662 509.418 69.1391 508.417 70.6405C507.487 72.2134 506.129 72.9999 504.342 72.9999H501.017C499.015 72.9999 497.549 72.1062 496.62 70.3188L491.901 60.7741C491.83 60.5596 491.615 60.4524 491.258 60.4524C490.972 60.4524 490.757 60.5596 490.614 60.7741L486.003 70.3188C485.074 72.1062 483.572 72.9999 481.499 72.9999H478.174C476.387 72.9999 475.028 72.2134 474.099 70.6405C473.17 69.1391 473.098 67.5662 473.884 65.9218L483.536 46.618C483.894 45.7601 483.894 44.9021 483.536 44.0442L473.777 24.6332C472.991 22.9888 473.062 21.3801 473.992 19.8072C474.993 18.2343 476.387 17.4479 478.174 17.4479H481.499C482.5 17.4479 483.358 17.7338 484.073 18.3058C484.859 18.8063 485.467 19.4497 485.896 20.2362L490.614 29.8881C490.757 30.1026 490.972 30.2098 491.258 30.2098C491.615 30.2098 491.83 30.1026 491.901 29.8881L496.727 20.2362C497.156 19.4497 497.728 18.8063 498.443 18.3058C499.23 17.7338 500.088 17.4479 501.017 17.4479H504.342C506.057 17.4479 507.452 18.2343 508.524 19.8072C509.453 21.3801 509.525 22.9888 508.739 24.6332Z" fill="#2563EB"/>
<path d="M558.287 68.0667C558.287 69.4251 557.822 70.6048 556.892 71.6057C555.963 72.5351 554.819 72.9999 553.461 72.9999H538.447C535.158 72.9999 532.334 71.8559 529.974 69.5681C527.687 67.2087 526.543 64.3489 526.543 60.9886V5.43661C526.543 4.0067 527.007 2.82702 527.937 1.89758C528.866 0.968139 530.01 0.503418 531.369 0.503418H534.371C535.73 0.503418 536.874 0.968139 537.803 1.89758C538.804 2.82702 539.305 4.0067 539.305 5.43661V16.1609C539.305 17.0189 539.769 17.4479 540.699 17.4479H553.461C554.819 17.4479 555.963 17.9483 556.892 18.9493C557.822 19.8787 558.287 21.0584 558.287 22.4883V25.3839C558.287 26.5993 557.822 27.7432 556.892 28.8156C555.82 29.7451 554.676 30.2098 553.461 30.2098H540.699C539.769 30.2098 539.305 30.7103 539.305 31.7112V58.951C539.305 59.8804 539.769 60.3451 540.699 60.3451H553.461C554.819 60.3451 555.963 60.8099 556.892 61.7393C557.822 62.6688 558.287 63.8484 558.287 65.2783V68.0667Z" fill="#2563EB"/>
<path d="M38 20.9998L6 43.9998L38 66.9998" stroke="#2563EB" stroke-width="12" stroke-linecap="round" stroke-linejoin="round"/>
<path d="M592 72.9998L592 14.9998" stroke="#2563EB" stroke-width="12" stroke-linecap="round"/>
<path d="M615 66.9998L647 43.9998L615 20.9998" stroke="#2563EB" stroke-width="12" stroke-linecap="round" stroke-linejoin="round"/>
<path d="M60 14.9998V72.9998" stroke="#2563EB" stroke-width="12" stroke-linecap="round"/>
</svg>
